{
  "accessors": [
    {
      "bufferView": 2,
      "componentType": 5126,
      "count": 65532,
      "max": [
        0.47163000702857971,
        0.46665599942207336,
        0.50488501787185669
      ],
      "min": [
        -0.37707799673080444,
        -0.41031700372695923,
        -0.71106100082397461
      ],
      "type": "VEC3"
    },
    {
      "bufferView": 2,
      "byteOffset": 786384,
      "componentType": 5126,
      "count": 65532,
      "max": [
        0.99998676776885986,
        0.99988079071044922,
        0.99913269281387329
      ],
      "min": [
        -0.99865669012069702,
        -0.99968808889389038,
        -0.9999014139175415
      ],
      "type": "VEC3"
    },
    {
      "bufferView": 1,
      "componentType": 5126,
      "count": 65532,
      "max": [
        0.97864902019500732,
        0.99998199939727783
      ],
      "min": [
        0.012105000205338001,
        0.0068399999290704727
      ],
      "type": "VEC2"
    },
    {
      "bufferView": 0,
      "componentType": 5125,
      "count": 65559,
      "max": [
        65531
      ],
      "min": [
        0
      ],
      "type": "SCALAR"
    },
    {
      "bufferView": 2,
      "byteOffset": 1572768,
      "componentType": 5126,
      "count": 65533,
      "max": [
        0.47825300693511963,
        0.43856701254844666,
        0.50769698619842529
      ],
      "min": [
        -0.42307600378990173,
        -0.4750170111656189,
        -0.72601598501205444
      ],
      "type": "VEC3"
    },
    {
      "bufferView": 2,
      "byteOffset": 2359164,
      "componentType": 5126,
      "count": 65533,
      "max": [
        0.99990451335906982,
        0.99992895126342773,
        0.99993324279785156
      ],
      "min": [
        -0.99986004829406738,
        -0.99908381700515747,
        -0.99973469972610474
      ],
      "type": "VEC3"
    },
    {
      "bufferView": 1,
      "byteOffset": 524256,
      "componentType": 5126,
      "count": 65533,
      "max": [
        0.97816997766494751,
        0.99966597557067871
      ],
      "min": [
        0.0073600001633167267,
        0.0034849999938160181
      ],
      "type": "VEC2"
    },
    {
      "bufferView": 0,
      "byteOffset": 262236,
      "componentType": 5125,
      "count": 65562,
      "max": [
        65532
      ],
      "min": [
        0
      ],
      "type": "SCALAR"
    },
    {
      "bufferView": 2,
      "byteOffset": 3145560,
      "componentType": 5126,
      "count": 65532,
      "max": [
        0.46575498580932617,
        0.44109499454498291,
        0.72883498668670654
      ],
      "min": [
        -0.45270898938179016,
        -0.50800001621246338,
        -0.72223401069641113
      ],
      "type": "VEC3"
    },
    {
      "bufferView": 2,
      "byteOffset": 3931944,
      "componentType": 5126,
      "count": 65532,
      "max": [
        0.99992525577545166,
        0.99996209144592285,
        0.99916815757751465
      ],
      "min": [
        -0.99985909461975098,
        -0.99977236986160278,
        -0.99967426061630249
      ],
      "type": "VEC3"
    },
    {
      "bufferView": 1,
      "byteOffset": 1048520,
      "componentType": 5126,
      "count": 65532,
      "max": [
        0.99697697162628174,
        0.99882501363754272
      ],
      "min": [
        0.0032029999420046806,
        0.0037189999129623175
      ],
      "type": "VEC2"
    },
    {
      "bufferView": 0,
      "byteOffset": 524484,
      "componentType": 5125,
      "count": 65556,
      "max": [
        65531
      ],
      "min": [
        0
      ],
      "type": "SCALAR"
    },
    {
      "bufferView": 2,
      "byteOffset": 4718328,
      "componentType": 5126,
      "count": 65533,
      "max": [
        0.43183499574661255,
        0.43556800484657288,
        0.7428629994392395
      ],
      "min": [
        -0.47814399003982544,
        -0.53326499462127686,
        -0.7076219916343689
      ],
      "type": "VEC3"
    },
    {
      "bufferView": 2,
      "byteOffset": 5504724,
      "componentType": 5126,
      "count": 65533,
      "max": [
        0.99997496604919434,
        0.99999499320983887,
        0.99997246265411377
      ],
      "min": [
        -0.99983853101730347,
        -0.99926257133483887,
        -0.99977189302444458
      ],
      "type": "VEC3"
    },
    {
      "bufferView": 1,
      "byteOffset": 1572776,
      "componentType": 5126,
      "count": 65533,
      "max": [
        0.98571199178695679,
        0.99850201606750488
      ],
      "min": [
        0.0043410002253949642,
        0.0035339999012649059
      ],
      "type": "VEC2"
    },
    {
      "bufferView": 0,
      "byteOffset": 786708,
      "componentType": 5125,
      "count": 65547,
      "max": [
        65532
      ],
      "min": [
        0
      ],
      "type": "SCALAR"
    },
    {
      "bufferView": 2,
      "byteOffset": 6291120,
      "componentType": 5126,
      "count": 65533,
      "max": [
        0.38923400640487671,
        0.42136499285697937,
        0.74240398406982422
      ],
      "min": [
        -0.50591099262237549,
        -0.5397070050239563,
        -0.65567797422409058
      ],
      "type": "VEC3"
    },
    {
      "bufferView": 2,
      "byteOffset": 7077516,
      "componentType": 5126,
      "count": 65533,
      "max": [
        0.99987328052520752,
        0.99972051382064819,
        0.99996089935302734
      ],
      "min": [
        -0.99976712465286255,
        -0.99999678134918213,
        -0.99967736005783081
      ],
      "type": "VEC3"
    },
    {
      "bufferView": 1,
      "byteOffset": 2097040,
      "componentType": 5126,
      "count": 65533,
      "max": [
        0.99723798036575317,
        0.99568599462509155
      ],
      "min": [
        0.0073009999468922615,
        0.0029859999194741249
      ],
      "type": "VEC2"
    },
    {
      "bufferView": 0,
      "byteOffset": 1048896,
      "componentType": 5125,
      "count": 65565,
      "max": [
        65532
      ],
      "min": [
        0
      ],
      "type": "SCALAR"
    },
    {
      "bufferView": 2,
      "byteOffset": 7863912,
      "componentType": 5126,
      "count": 65534,
      "max": [
        0.29950800538063049,
        0.3984299898147583,
        0.73796802759170532
      ],
      "min": [
        -0.52760899066925049,
        -0.53833502531051636,
        -0.57596200704574585
      ],
      "type": "VEC3"
    },
    {
      "bufferView": 2,
      "byteOffset": 8650320,
      "componentType": 5126,
      "count": 65534,
      "max": [
        0.99994897842407227,
        0.99994015693664551,
        0.9995841383934021
      ],
      "min": [
        -0.99999117851257324,
        -0.99995696544647217,
        -0.9997742772102356
      ],
      "type": "VEC3"
    },
    {
      "bufferView": 1,
      "byteOffset": 2621304,
      "componentType": 5126,
      "count": 65534,
      "max": [
        0.97645199298858643,
        1.0000489950180054
      ],
      "min": [
        0.0073009999468922615,
        0.005609000101685524
      ],
      "type": "VEC2"
    },
    {
      "bufferView": 0,
      "byteOffset": 1311156,
      "componentType": 5125,
      "count": 65568,
      "max": [
        65533
      ],
      "min": [
        0
      ],
      "type": "SCALAR"
    },
    {
      "bufferView": 2,
      "byteOffset": 9436728,
      "componentType": 5126,
      "count": 65534,
      "max": [
        0.24427700042724609,
        0.34636399149894714,
        0.73755300045013428
      ],
      "min": [
        -0.52930200099945068,
        -0.51107698678970337,
        -0.48744300007820129
      ],
      "type": "VEC3"
    },
    {
      "bufferView": 2,
      "byteOffset": 10223136,
      "componentType": 5126,
      "count": 65534,
      "max": [
        0.99992096424102783,
        0.99994087219238281,
        0.99939322471618652
      ],
      "min": [
        -0.99994838237762451,
        -0.99997055530548096,
        -0.99995994567871094
      ],
      "type": "VEC3"
    },
    {
      "bufferView": 1,
      "byteOffset": 3145576,
      "componentType": 5126,
      "count": 65534,
      "max": [
        0.98650598526000977,
        0.99716198444366455
      ],
      "min": [
        0.0070489998906850815,
        0.018441999331116676
      ],
      "type": "VEC2"
    },
    {
      "bufferView": 0,
      "byteOffset": 1573428,
      "componentType": 5125,
      "count": 65574,
      "max": [
        65533
      ],
      "min": [
        0
      ],
      "type": "SCALAR"
    },
    {
      "bufferView": 2,
      "byteOffset": 11009544,
      "componentType": 5126,
      "count": 65533,
      "max": [
        0.14242500066757202,
        0.20155300199985504,
        0.73593699932098389
      ],
      "min": [
        -0.51629400253295898,
        -0.45954999327659607,
        -0.36064299941062927
      ],
      "type": "VEC3"
    },
    {
      "bufferView": 2,
      "byteOffset": 11795940,
      "componentType": 5126,
      "count": 65533,
      "max": [
        0.99556261301040649,
        0.99984866380691528,
        0.99968057870864868
      ],
      "min": [
        -0.99975508451461792,
        -0.99870073795318604,
        -0.99892598390579224
      ],
      "type": "VEC3"
    },
    {
      "bufferView": 1,
      "byteOffset": 3669848,
      "componentType": 5126,
      "count": 65533,
      "max": [
        0.98824000358581543,
        0.99915498495101929
      ],
      "min": [
        0.008748999796807766,
        0.0032579998951405287
      ],
      "type": "VEC2"
    },
    {
      "bufferView": 0,
      "byteOffset": 1835724,
      "componentType": 5125,
      "count": 65577,
      "max": [
        65532
      ],
      "min": [
        0
      ],
      "type": "SCALAR"
    },
    {
      "bufferView": 2,
      "byteOffset": 12582336,
      "componentType": 5126,
      "count": 7504,
      "max": [
        -0.073257997632026672,
        0.024997999891638756,
        0.35679700970649719
      ],
      "min": [
        -0.39441400766372681,
        -0.32734501361846924,
        -0.19230400025844574
      ],
      "type": "VEC3"
    },
    {
      "bufferView": 2,
      "byteOffset": 12672384,
      "componentType": 5126,
      "count": 7504,
      "max": [
        0.75391215085983276,
        0.82517236471176147,
        0.69740647077560425
      ],
      "min": [
        -0.85619622468948364,
        -0.86139506101608276,
        -0.22270689904689789
      ],
      "type": "VEC3"
    },
    {
      "bufferView": 1,
      "byteOffset": 4194112,
      "componentType": 5126,
      "count": 7504,
      "max": [
        0.97323000431060791,
        0.89948898553848267
      ],
      "min": [
        0.19402499496936798,
        0.18687699735164642
      ],
      "type": "VEC2"
    },
    {
      "bufferView": 0,
      "byteOffset": 2098032,
      "componentType": 5125,
      "count": 7512,
      "max": [
        7503
      ],
      "min": [
        0
      ],
      "type": "SCALAR"
    }
  ],
  "asset": {
    "extras": {
      "author": "Morbase | Museu Virtual (https://sketchfab.com/carpetudo)",
      "license": "CC0-1.0 (http://creativecommons.org/publicdomain/zero/1.0/)",
      "source": "https://sketchfab.com/3d-models/cantil-pottery-flask-de6dfdeb6db5483ab121b03373c210f4",
      "title": "Cantil | Pottery Flask"
    },
    "generator": "Sketchfab-7.80.0",
    "version": "2.0"
  },
  "bufferViews": [
    {
      "buffer": 0,
      "byteLength": 2128080,
      "byteOffset": 0,
      "name": "floatBufferViews",
      "target": 34963
    },
    {
      "buffer": 0,
      "byteLength": 4254144,
      "byteOffset": 2128080,
      "byteStride": 8,
      "name": "floatBufferViews",
      "target": 34962
    },
    {
      "buffer": 0,
      "byteLength": 12762432,
      "byteOffset": 6382224,
      "byteStride": 12,
      "name": "floatBufferViews",
      "target": 34962
    }
  ],
  "buffers": [
    {
      "byteLength": 19144656,
      "uri": "scene.bin"
    }
  ],
  "extensionsUsed": [
    "KHR_materials_unlit"
  ],
  "images": [
    {
      "uri": "textures/cantilnovo_baseColor.jpeg"
    }
  ],
  "materials": [
    {
      "doubleSided": true,
      "emissiveFactor": [
        0,
        0,
        0
      ],
      "extensions": {
        "KHR_materials_unlit": {}
      },
      "name": "cantilnovo",
      "pbrMetallicRoughness": {
        "baseColorFactor": [
          1,
          1,
          1,
          1
        ],
        "baseColorTexture": {
          "index": 0,
          "texCoord": 0
        },
        "metallicFactor": 0,
        "roughnessFactor": 1
      }
    }
  ],
  "meshes": [
    {
      "primitives": [
        {
          "attributes": {
            "NORMAL": 1,
            "POSITION": 0,
            "TEXCOORD_0": 2
          },
          "indices": 3,
          "material": 0,
          "mode": 4
        }
      ]
    },
    {
      "primitives": [
        {
          "attributes": {
            "NORMAL": 5,
            "POSITION": 4,
            "TEXCOORD_0": 6
          },
          "indices": 7,
          "material": 0,
          "mode": 4
        }
      ]
    },
    {
      "primitives": [
        {
          "attributes": {
            "NORMAL": 9,
            "POSITION": 8,
            "TEXCOORD_0": 10
          },
          "indices": 11,
          "material": 0,
          "mode": 4
        }
      ]
    },
    {
      "primitives": [
        {
          "attributes": {
            "NORMAL": 13,
            "POSITION": 12,
            "TEXCOORD_0": 14
          },
          "indices": 15,
          "material": 0,
          "mode": 4
        }
      ]
    },
    {
      "primitives": [
        {
          "attributes": {
            "NORMAL": 17,
            "POSITION": 16,
            "TEXCOORD_0": 18
          },
          "indices": 19,
          "material": 0,
          "mode": 4
        }
      ]
    },
    {
      "primitives": [
        {
          "attributes": {
            "NORMAL": 21,
            "POSITION": 20,
            "TEXCOORD_0": 22
          },
          "indices": 23,
          "material": 0,
          "mode": 4
        }
      ]
    },
    {
      "primitives": [
        {
          "attributes": {
            "NORMAL": 25,
            "POSITION": 24,
            "TEXCOORD_0": 26
          },
          "indices": 27,
          "material": 0,
          "mode": 4
        }
      ]
    },
    {
      "primitives": [
        {
          "attributes": {
            "NORMAL": 29,
            "POSITION": 28,
            "TEXCOORD_0": 30
          },
          "indices": 31,
          "material": 0,
          "mode": 4
        }
      ]
    },
    {
      "primitives": [
        {
          "attributes": {
            "NORMAL": 33,
            "POSITION": 32,
            "TEXCOORD_0": 34
          },
          "indices": 35,
          "material": 0,
          "mode": 4
        }
      ]
    }
  ],
  "nodes": [
    {
      "children": [
        1
      ],
      "name": "RootNode (gltf orientation matrix)",
      "rotation": [
        -0.70710678118654746,
        -0,
        -0,
        0.70710678118654757
      ]
    },
    {
      "children": [
        2
      ],
      "name": "RootNode (model correction matrix)"
    },
    {
      "children": [
        3,
        4,
        5,
        6,
        7,
        8,
        9,
        10,
        11
      ],
      "name": "cantiSketchfab.obj.cleaner.gles"
    },
    {
      "mesh": 0,
      "name": ""
    },
    {
      "mesh": 1,
      "name": ""
    },
    {
      "mesh": 2,
      "name": ""
    },
    {
      "mesh": 3,
      "name": ""
    },
    {
      "mesh": 4,
      "name": ""
    },
    {
      "mesh": 5,
      "name": ""
    },
    {
      "mesh": 6,
      "name": ""
    },
    {
      "mesh": 7,
      "name": ""
    },
    {
      "mesh": 8,
      "name": ""
    }
  ],
  "samplers": [
    {
      "magFilter": 9729,
      "minFilter": 9987,
      "wrapS": 10497,
      "wrapT": 10497
    }
  ],
  "scene": 0,
  "scenes": [
    {
      "name": "OSG_Scene",
      "nodes": [
        0
      ]
    }
  ],
  "textures": [
    {
      "sampler": 0,
      "source": 0
    }
  ]
}

